<?xml version="1.0" encoding="UTF-8" standalone="no"?>
<svg
   xmlns:dc="http://purl.org/dc/elements/1.1/"
   xmlns:cc="http://creativecommons.org/ns#"
   xmlns:rdf="http://www.w3.org/1999/02/22-rdf-syntax-ns#"
   xmlns:svg="http://www.w3.org/2000/svg"
   xmlns="http://www.w3.org/2000/svg"
   width="32"
   height="32"
   viewBox="0 0 8.4666665 8.466667"
   version="1.1"
   id="svg8">
  <defs
     id="defs2" />
  <metadata
     id="metadata5">
    <rdf:RDF>
      <cc:Work
         rdf:about="">
        <dc:format>image/svg+xml</dc:format>
        <dc:type
           rdf:resource="http://purl.org/dc/dcmitype/StillImage" />
        <dc:title></dc:title>
      </cc:Work>
    </rdf:RDF>
  </metadata>
  <g
     id="layer1">
    <g
       id="g1871"
       transform="matrix(0.43066625,0.43066624,-0.43066624,0.43066625,6.1709752,-1.350616)"
       style="stroke-width:0.434417;stroke-miterlimit:4;stroke-dasharray:none">
      <g
         id="g2003"
         transform="translate(0.1950843,0.14854219)">
        <path
           id="path1960"
           style="color:#000000;font-style:normal;font-variant:normal;font-weight:normal;font-stretch:normal;font-size:medium;line-height:normal;font-family:sans-serif;font-variant-ligatures:normal;font-variant-position:normal;font-variant-caps:normal;font-variant-numeric:normal;font-variant-alternates:normal;font-variant-east-asian:normal;font-feature-settings:normal;font-variation-settings:normal;text-indent:0;text-align:start;text-decoration:none;text-decoration-line:none;text-decoration-style:solid;text-decoration-color:#000000;letter-spacing:normal;word-spacing:normal;text-transform:none;writing-mode:lr-tb;direction:ltr;text-orientation:mixed;dominant-baseline:auto;baseline-shift:baseline;text-anchor:start;white-space:normal;shape-padding:0;shape-margin:0;inline-size:0;clip-rule:nonzero;display:inline;overflow:visible;visibility:visible;isolation:auto;mix-blend-mode:normal;color-interpolation:sRGB;color-interpolation-filters:linearRGB;solid-color:#000000;solid-opacity:1;vector-effect:none;fill:#000000;fill-opacity:1;fill-rule:nonzero;stroke:none;stroke-width:0.434417;stroke-linecap:butt;stroke-linejoin:round;stroke-miterlimit:4;stroke-dasharray:none;stroke-dashoffset:0;stroke-opacity:1;paint-order:stroke fill markers;color-rendering:auto;image-rendering:auto;shape-rendering:auto;text-rendering:auto;enable-background:accumulate;stop-color:#000000"
           d="m 3.9639645,0.69268853 a 0.10861486,0.10861486 0 0 0 -0.022198,0.0305986 L 3.3988032,1.783415 a 0.10861486,0.10861486 0 0 0 -0.012,0.045597 L 2.9752314,10.8248 3.8871696,10.740805 c 0.1009329,-0.0093 0.2014471,-0.0093 0.3023793,0 L 5.1014868,10.824799 4.689315,1.8284113 A 0.10861486,0.10861486 0 0 0 4.6779157,1.7834145 L 4.1349527,0.72328667 a 0.10861486,0.10861486 0 0 0 -0.088194,-0.0605958 0.10861486,0.10861486 0 0 0 -0.082794,0.0299977 z M 1.6163237,11.206973 c -0.023603,0.02588 -0.037798,0.06032 -0.0378,0.09779 l 2e-7,0.727151 c 3.5e-6,0.07319 0.058799,0.132749 0.1319914,0.13319 l 1.8556736,0.0114 0.4715681,0.0024 0.4727677,-0.0024 1.8550737,-0.012 c 0.07319,-4.42e-4 0.132592,-0.0594 0.1325908,-0.132591 l 2.4e-6,-0.727152 c -1.5e-6,-0.07495 -0.057356,-0.137096 -0.1319912,-0.143991 L 4.1697501,10.95739 c -0.087634,-0.0081 -0.1757486,-0.0075 -0.2633816,6e-4 l -2.1964511,0.202186 c -0.03732,0.0035 -0.069991,0.02092 -0.093593,0.0468 z m 1.9498673,1.18672 -5.998e-4,2.420835 0.9449357,6e-4 3e-7,-2.421436 -0.4709682,0.003 a 0.2172085,0.2172085 0 0 1 -0.0024,0 z" />
        <path
           style="fill:none;stroke:#000000;stroke-width:0.325813;stroke-linecap:round;stroke-linejoin:round;stroke-miterlimit:4;stroke-dasharray:none;paint-order:normal"
           d="m 3.3621977,15.364721 c 5e-7,-0.373337 0.3026325,-0.675987 0.6759663,-0.675986 0.3733345,-10e-7 0.6759661,0.30265 0.6759666,0.675985 3e-7,0.373336 -0.3026494,0.675987 -0.6759669,0.675988 -0.3733168,-10e-7 -0.675966,-0.302651 -0.675966,-0.675987 z"
           id="path1805" />
      </g>
    </g>
  </g>
</svg>
